<svg width="478" height="124" viewBox="0 0 478 124" fill="none" xmlns="http://www.w3.org/2000/svg">
  <path d="M329.936 88.3369C329.936 87.6126 329.748 87.0674 329.374 86.7012C329.008 86.3268 328.336 85.9403 327.36 85.5415C325.578 84.866 324.296 84.0767 323.515 83.1733C322.733 82.2619 322.343 81.1877 322.343 79.9507C322.343 78.4533 322.872 77.2529 323.93 76.3496C324.996 75.4382 326.347 74.9824 327.982 74.9824C329.073 74.9824 330.045 75.2144 330.9 75.6782C331.754 76.134 332.41 76.7809 332.865 77.6191C333.329 78.4574 333.561 79.4095 333.561 80.4756H329.984C329.984 79.6455 329.805 79.0148 329.447 78.5835C329.097 78.144 328.589 77.9243 327.921 77.9243C327.295 77.9243 326.806 78.1115 326.457 78.4858C326.107 78.8521 325.932 79.3485 325.932 79.9751C325.932 80.4634 326.127 80.9069 326.518 81.3057C326.908 81.6963 327.6 82.1032 328.593 82.5264C330.326 83.153 331.583 83.922 332.365 84.8335C333.154 85.745 333.549 86.9046 333.549 88.3125C333.549 89.8587 333.056 91.0672 332.072 91.938C331.087 92.8088 329.748 93.2441 328.056 93.2441C326.908 93.2441 325.862 93.0081 324.918 92.5361C323.974 92.0641 323.234 91.3887 322.697 90.5098C322.168 89.6309 321.903 88.5933 321.903 87.397H325.504C325.504 88.4224 325.704 89.167 326.103 89.6309C326.501 90.0947 327.152 90.3267 328.056 90.3267C329.309 90.3267 329.936 89.6634 329.936 88.3369ZM341.093 93.2441C339.319 93.2441 337.935 92.7152 336.942 91.6572C335.95 90.5993 335.453 89.0856 335.453 87.1162V86.0664C335.453 83.9831 335.909 82.3758 336.82 81.2446C337.732 80.1134 339.038 79.5479 340.739 79.5479C342.399 79.5479 343.648 80.0809 344.486 81.147C345.325 82.2049 345.752 83.7756 345.768 85.8589V87.5557H338.896C338.944 88.5322 339.16 89.2484 339.542 89.7041C339.925 90.1517 340.515 90.3755 341.312 90.3755C342.468 90.3755 343.432 89.9808 344.206 89.1914L345.561 91.2788C345.137 91.8647 344.523 92.3408 343.717 92.707C342.912 93.0651 342.037 93.2441 341.093 93.2441ZM338.92 85.1387H342.375V84.8213C342.358 84.0319 342.228 83.4338 341.984 83.0269C341.74 82.62 341.317 82.4165 340.714 82.4165C340.112 82.4165 339.673 82.6322 339.396 83.0635C339.127 83.4948 338.969 84.1865 338.92 85.1387ZM354.24 83.1245L353.092 83.0269C352.148 83.0269 351.509 83.4419 351.176 84.272V93H347.709V79.792H350.968L351.066 81.2202C351.611 80.1053 352.364 79.5479 353.324 79.5479C353.715 79.5479 354.032 79.6007 354.276 79.7065L354.24 83.1245ZM360.575 88.1172L362.248 79.792H365.849L362.223 93H358.927L355.29 79.792H358.903L360.575 88.1172ZM371.098 93H367.631V79.792H371.098V93ZM367.472 76.374C367.472 75.8369 367.643 75.3975 367.985 75.0557C368.327 74.7139 368.782 74.543 369.352 74.543C369.922 74.543 370.377 74.7139 370.719 75.0557C371.061 75.3975 371.232 75.8369 371.232 76.374C371.232 76.903 371.061 77.3424 370.719 77.6924C370.386 78.0423 369.93 78.2173 369.352 78.2173C368.774 78.2173 368.314 78.0423 367.973 77.6924C367.639 77.3424 367.472 76.903 367.472 76.374ZM378.544 90.3755C379.545 90.3755 380.054 89.7244 380.07 88.4224H383.317C383.301 89.8628 382.857 91.0265 381.986 91.9136C381.116 92.8006 379.993 93.2441 378.617 93.2441C376.916 93.2441 375.618 92.7152 374.723 91.6572C373.828 90.5993 373.372 89.0409 373.356 86.9819V85.9321C373.356 83.8569 373.795 82.2741 374.674 81.1836C375.561 80.0931 376.868 79.5479 378.593 79.5479C380.049 79.5479 381.197 79.9995 382.035 80.9028C382.873 81.798 383.301 83.0716 383.317 84.7236H380.07C380.062 83.9831 379.94 83.4134 379.704 83.0146C379.468 82.6159 379.077 82.4165 378.532 82.4165C377.93 82.4165 377.498 82.6322 377.238 83.0635C376.977 83.4867 376.839 84.3127 376.823 85.5415V86.8843C376.823 87.9585 376.876 88.7113 376.981 89.1426C377.087 89.5658 377.262 89.8791 377.506 90.0825C377.75 90.2778 378.096 90.3755 378.544 90.3755ZM390.604 93.2441C388.83 93.2441 387.447 92.7152 386.454 91.6572C385.461 90.5993 384.965 89.0856 384.965 87.1162V86.0664C384.965 83.9831 385.421 82.3758 386.332 81.2446C387.243 80.1134 388.55 79.5479 390.25 79.5479C391.911 79.5479 393.16 80.0809 393.998 81.147C394.836 82.2049 395.264 83.7756 395.28 85.8589V87.5557H388.407C388.456 88.5322 388.672 89.2484 389.054 89.7041C389.437 90.1517 390.027 90.3755 390.824 90.3755C391.98 90.3755 392.944 89.9808 393.717 89.1914L395.072 91.2788C394.649 91.8647 394.035 92.3408 393.229 92.707C392.423 93.0651 391.549 93.2441 390.604 93.2441ZM388.432 85.1387H391.886V84.8213C391.87 84.0319 391.74 83.4338 391.496 83.0269C391.251 82.62 390.828 82.4165 390.226 82.4165C389.624 82.4165 389.184 82.6322 388.908 83.0635C388.639 83.4948 388.48 84.1865 388.432 85.1387ZM403.166 93V75.2266H407.865C409.94 75.2266 411.592 75.8857 412.821 77.2041C414.058 78.5225 414.689 80.3291 414.713 82.624V85.5049C414.713 87.8405 414.095 89.6756 412.858 91.0103C411.629 92.3368 409.932 93 407.768 93H403.166ZM406.754 78.2173V90.0215H407.829C409.025 90.0215 409.867 89.7082 410.355 89.0815C410.844 88.4468 411.1 87.3563 411.125 85.8101V82.7217C411.125 81.0615 410.893 79.9059 410.429 79.2549C409.965 78.5957 409.175 78.2498 408.061 78.2173H406.754ZM422.465 93.2441C420.691 93.2441 419.307 92.7152 418.314 91.6572C417.322 90.5993 416.825 89.0856 416.825 87.1162V86.0664C416.825 83.9831 417.281 82.3758 418.192 81.2446C419.104 80.1134 420.41 79.5479 422.111 79.5479C423.771 79.5479 425.02 80.0809 425.858 81.147C426.697 82.2049 427.124 83.7756 427.14 85.8589V87.5557H420.268C420.316 88.5322 420.532 89.2484 420.915 89.7041C421.297 90.1517 421.887 90.3755 422.685 90.3755C423.84 90.3755 424.805 89.9808 425.578 89.1914L426.933 91.2788C426.509 91.8647 425.895 92.3408 425.089 92.707C424.284 93.0651 423.409 93.2441 422.465 93.2441ZM420.292 85.1387H423.747V84.8213C423.73 84.0319 423.6 83.4338 423.356 83.0269C423.112 82.62 422.689 82.4165 422.086 82.4165C421.484 82.4165 421.045 82.6322 420.768 83.0635C420.5 83.4948 420.341 84.1865 420.292 85.1387ZM433.256 88.1172L434.928 79.792H438.529L434.904 93H431.608L427.97 79.792H431.583L433.256 88.1172ZM443.778 93H440.312V79.792H443.778V93ZM440.153 76.374C440.153 75.8369 440.324 75.3975 440.666 75.0557C441.007 74.7139 441.463 74.543 442.033 74.543C442.602 74.543 443.058 74.7139 443.4 75.0557C443.742 75.3975 443.913 75.8369 443.913 76.374C443.913 76.903 443.742 77.3424 443.4 77.6924C443.066 78.0423 442.611 78.2173 442.033 78.2173C441.455 78.2173 440.995 78.0423 440.653 77.6924C440.32 77.3424 440.153 76.903 440.153 76.374ZM451.225 90.3755C452.226 90.3755 452.734 89.7244 452.75 88.4224H455.998C455.981 89.8628 455.538 91.0265 454.667 91.9136C453.796 92.8006 452.673 93.2441 451.298 93.2441C449.597 93.2441 448.299 92.7152 447.404 91.6572C446.509 90.5993 446.053 89.0409 446.037 86.9819V85.9321C446.037 83.8569 446.476 82.2741 447.355 81.1836C448.242 80.0931 449.548 79.5479 451.273 79.5479C452.73 79.5479 453.878 79.9995 454.716 80.9028C455.554 81.798 455.981 83.0716 455.998 84.7236H452.75C452.742 83.9831 452.62 83.4134 452.384 83.0146C452.148 82.6159 451.758 82.4165 451.212 82.4165C450.61 82.4165 450.179 82.6322 449.918 83.0635C449.658 83.4867 449.52 84.3127 449.503 85.5415V86.8843C449.503 87.9585 449.556 88.7113 449.662 89.1426C449.768 89.5658 449.943 89.8791 450.187 90.0825C450.431 90.2778 450.777 90.3755 451.225 90.3755ZM463.285 93.2441C461.511 93.2441 460.128 92.7152 459.135 91.6572C458.142 90.5993 457.646 89.0856 457.646 87.1162V86.0664C457.646 83.9831 458.101 82.3758 459.013 81.2446C459.924 80.1134 461.23 79.5479 462.931 79.5479C464.591 79.5479 465.84 80.0809 466.679 81.147C467.517 82.2049 467.944 83.7756 467.96 85.8589V87.5557H461.088C461.137 88.5322 461.352 89.2484 461.735 89.7041C462.117 90.1517 462.707 90.3755 463.505 90.3755C464.66 90.3755 465.625 89.9808 466.398 89.1914L467.753 91.2788C467.33 91.8647 466.715 92.3408 465.91 92.707C465.104 93.0651 464.229 93.2441 463.285 93.2441ZM461.112 85.1387H464.567V84.8213C464.551 84.0319 464.42 83.4338 464.176 83.0269C463.932 82.62 463.509 82.4165 462.907 82.4165C462.305 82.4165 461.865 82.6322 461.588 83.0635C461.32 83.4948 461.161 84.1865 461.112 85.1387Z" fill="#203C42"/>
  <path d="M323.947 108.961L325.236 104.66H326.754L324.234 111.961C323.848 113.027 323.191 113.561 322.266 113.561C322.059 113.561 321.83 113.525 321.58 113.455V112.354L321.85 112.371C322.209 112.371 322.479 112.305 322.658 112.172C322.842 112.043 322.986 111.824 323.092 111.516L323.297 110.971L321.07 104.66H322.605L323.947 108.961ZM331.342 109.248L333.217 104.66H334.998V111H333.574V106.805L331.828 111H330.861L329.109 106.781V111H327.686V104.66H329.479L331.342 109.248ZM341.971 111H340.547V108.439H338.08V111H336.656V104.66H338.08V107.303H340.547V104.66H341.971V111ZM345.023 106.676H346.418C346.938 106.676 347.391 106.766 347.777 106.945C348.164 107.125 348.457 107.377 348.656 107.701C348.859 108.025 348.961 108.402 348.961 108.832C348.961 109.484 348.73 110.008 348.27 110.402C347.809 110.797 347.195 110.996 346.43 111H343.6V104.66H345.023V106.676ZM351.439 111H350.016V104.66H351.439V111ZM345.023 107.818V109.863H346.412C346.76 109.863 347.033 109.777 347.232 109.605C347.436 109.43 347.537 109.182 347.537 108.861C347.537 108.541 347.438 108.289 347.238 108.105C347.043 107.918 346.777 107.822 346.441 107.818H345.023ZM355.939 111.117C355.037 111.117 354.305 110.834 353.742 110.268C353.184 109.697 352.904 108.939 352.904 107.994V107.818C352.904 107.186 353.025 106.621 353.268 106.125C353.514 105.625 353.857 105.236 354.299 104.959C354.74 104.682 355.232 104.543 355.775 104.543C356.639 104.543 357.305 104.818 357.773 105.369C358.246 105.92 358.482 106.699 358.482 107.707V108.281H354.34C354.383 108.805 354.557 109.219 354.861 109.523C355.17 109.828 355.557 109.98 356.021 109.98C356.674 109.98 357.205 109.717 357.615 109.189L358.383 109.922C358.129 110.301 357.789 110.596 357.363 110.807C356.941 111.014 356.467 111.117 355.939 111.117ZM355.77 105.686C355.379 105.686 355.062 105.822 354.82 106.096C354.582 106.369 354.43 106.75 354.363 107.238H357.076V107.133C357.045 106.656 356.918 106.297 356.695 106.055C356.473 105.809 356.164 105.686 355.77 105.686ZM367.57 105.791H365.514V111H364.09V105.791H362.057V104.66H367.57V105.791ZM370.939 111.117C370.037 111.117 369.305 110.834 368.742 110.268C368.184 109.697 367.904 108.939 367.904 107.994V107.818C367.904 107.186 368.025 106.621 368.268 106.125C368.514 105.625 368.857 105.236 369.299 104.959C369.74 104.682 370.232 104.543 370.775 104.543C371.639 104.543 372.305 104.818 372.773 105.369C373.246 105.92 373.482 106.699 373.482 107.707V108.281H369.34C369.383 108.805 369.557 109.219 369.861 109.523C370.17 109.828 370.557 109.98 371.021 109.98C371.674 109.98 372.205 109.717 372.615 109.189L373.383 109.922C373.129 110.301 372.789 110.596 372.363 110.807C371.941 111.014 371.467 111.117 370.939 111.117ZM370.77 105.686C370.379 105.686 370.062 105.822 369.82 106.096C369.582 106.369 369.43 106.75 369.363 107.238H372.076V107.133C372.045 106.656 371.918 106.297 371.695 106.055C371.473 105.809 371.164 105.686 370.77 105.686ZM376.869 106.746L378.076 104.66H379.658L377.719 107.783L379.723 111H378.152L376.887 108.832L375.627 111H374.045L376.049 107.783L374.115 104.66H375.686L376.869 106.746ZM385.998 111H384.574V108.439H382.107V111H380.684V104.66H382.107V107.303H384.574V104.66H385.998V111ZM387.252 107.771C387.252 107.15 387.375 106.592 387.621 106.096C387.867 105.596 388.213 105.213 388.658 104.947C389.104 104.678 389.615 104.543 390.193 104.543C391.049 104.543 391.742 104.818 392.273 105.369C392.809 105.92 393.098 106.65 393.141 107.561L393.146 107.895C393.146 108.52 393.025 109.078 392.783 109.57C392.545 110.062 392.201 110.443 391.752 110.713C391.307 110.982 390.791 111.117 390.205 111.117C389.311 111.117 388.594 110.82 388.055 110.227C387.52 109.629 387.252 108.834 387.252 107.842V107.771ZM388.676 107.895C388.676 108.547 388.811 109.059 389.08 109.43C389.35 109.797 389.725 109.98 390.205 109.98C390.686 109.98 391.059 109.793 391.324 109.418C391.594 109.043 391.729 108.494 391.729 107.771C391.729 107.131 391.59 106.623 391.312 106.248C391.039 105.873 390.666 105.686 390.193 105.686C389.729 105.686 389.359 105.871 389.086 106.242C388.812 106.609 388.676 107.16 388.676 107.895ZM399.645 104.66V111H398.221V105.809H396.428L396.311 108.018C396.236 109.08 396.031 109.844 395.695 110.309C395.363 110.77 394.854 111 394.166 111H393.727L393.721 109.816L394.014 109.787C394.326 109.744 394.553 109.555 394.693 109.219C394.838 108.879 394.93 108.262 394.969 107.367L395.086 104.66H399.645ZM400.893 107.771C400.893 107.15 401.016 106.592 401.262 106.096C401.508 105.596 401.854 105.213 402.299 104.947C402.744 104.678 403.256 104.543 403.834 104.543C404.689 104.543 405.383 104.818 405.914 105.369C406.449 105.92 406.738 106.65 406.781 107.561L406.787 107.895C406.787 108.52 406.666 109.078 406.424 109.57C406.186 110.062 405.842 110.443 405.393 110.713C404.947 110.982 404.432 111.117 403.846 111.117C402.951 111.117 402.234 110.82 401.695 110.227C401.16 109.629 400.893 108.834 400.893 107.842V107.771ZM402.316 107.895C402.316 108.547 402.451 109.059 402.721 109.43C402.99 109.797 403.365 109.98 403.846 109.98C404.326 109.98 404.699 109.793 404.965 109.418C405.234 109.043 405.369 108.494 405.369 107.771C405.369 107.131 405.23 106.623 404.953 106.248C404.68 105.873 404.307 105.686 403.834 105.686C403.369 105.686 403 105.871 402.727 106.242C402.453 106.609 402.316 107.16 402.316 107.895ZM412.213 105.809H409.459V111H408.041V104.66H412.213V105.809ZM416.977 104.66H418.395V111H416.977V106.77L414.492 111H413.074V104.66H414.492V108.891L416.977 104.66ZM423.867 104.66H425.285V111H423.867V106.77L421.383 111H419.965V104.66H421.383V108.891L423.867 104.66Z" fill="#788891"/>
  <path d="M285.067 77.8665C286.195 77.8665 287.149 78.5936 287.507 79.5998H296.493C296.852 78.5936 297.805 77.8665 298.933 77.8665C300.367 77.8665 301.533 79.033 301.533 80.4664C301.533 81.8999 300.367 83.0664 298.933 83.0664C297.805 83.0664 296.852 82.3392 296.493 81.3331H287.506C287.148 82.3392 286.194 83.0664 285.066 83.0664C283.632 83.0664 282.466 81.8999 282.466 80.4664C282.466 79.033 283.633 77.8665 285.067 77.8665ZM298.933 81.3331C299.411 81.3331 299.8 80.9448 299.8 80.4664C299.8 79.988 299.411 79.5998 298.933 79.5998C298.456 79.5998 298.067 79.988 298.067 80.4664C298.067 80.9448 298.456 81.3331 298.933 81.3331ZM285.067 81.3331C285.544 81.3331 285.933 80.9448 285.933 80.4664C285.933 79.988 285.544 79.5998 285.067 79.5998C284.589 79.5998 284.2 79.988 284.2 80.4664C284.2 80.9448 284.589 81.3331 285.067 81.3331Z" fill="#00B2FF"/>
  <path d="M278.133 83.2259V77.8665C278.133 77.636 278.224 77.4158 278.387 77.2538L281.854 73.7872C282.016 73.6242 282.237 73.5332 282.467 73.5332H285.226C285.585 72.527 286.538 71.7999 287.667 71.7999C289.1 71.7999 290.267 72.9664 290.267 74.3999C290.267 75.8333 289.1 76.9998 287.667 76.9998C286.538 76.9998 285.585 76.2727 285.226 75.2665H282.825L279.867 78.2253V83.2259C280.873 83.5847 281.6 84.538 281.6 85.6664C281.6 87.0998 280.433 88.2663 279 88.2663C277.566 88.2663 276.4 87.0998 276.4 85.6664C276.4 84.538 277.127 83.5847 278.133 83.2259ZM287.667 75.2665C288.144 75.2665 288.533 74.8783 288.533 74.3999C288.533 73.9215 288.144 73.5332 287.667 73.5332C287.189 73.5332 286.8 73.9215 286.8 74.3999C286.8 74.8783 287.189 75.2665 287.667 75.2665ZM279 86.533C279.477 86.533 279.867 86.1448 279.867 85.6664C279.867 85.188 279.477 84.7997 279 84.7997C278.522 84.7997 278.133 85.188 278.133 85.6664C278.133 86.1448 278.522 86.533 279 86.533Z" fill="#00B2FF"/>
  <path d="M262.533 86.533C262.934 86.533 263.308 86.6309 263.647 86.7938L265.133 85.3075V76.9998C265.133 76.7693 265.224 76.5491 265.387 76.3871L274.061 67.7136C273.898 67.3747 273.8 67.0003 273.8 66.6C273.8 65.1665 274.967 64 276.4 64C277.833 64 279 65.1665 279 66.6C279 68.0334 277.833 69.1999 276.4 69.1999C276 69.1999 275.625 69.102 275.286 68.9391L266.867 77.3586V85.6663C266.867 85.8968 266.776 86.117 266.613 86.279L264.872 88.0193C265.035 88.3581 265.133 88.7325 265.133 89.1329C265.133 90.5664 263.967 91.7329 262.533 91.7329C261.1 91.7329 259.933 90.5664 259.933 89.1329C259.933 87.6995 261.1 86.533 262.533 86.533ZM276.4 67.4666C276.878 67.4666 277.267 67.0783 277.267 66.6C277.267 66.1216 276.878 65.7333 276.4 65.7333C275.922 65.7333 275.533 66.1216 275.533 66.6C275.533 67.0783 275.922 67.4666 276.4 67.4666ZM262.533 89.9996C263.011 89.9996 263.4 89.6113 263.4 89.1329C263.4 88.6545 263.011 88.2663 262.533 88.2663C262.056 88.2663 261.667 88.6545 261.667 89.1329C261.667 89.6113 262.056 89.9996 262.533 89.9996Z" fill="#00B2FF"/>
  <path d="M254.733 76.2926V72.6665C254.733 72.436 254.824 72.2159 254.987 72.0538L261.054 65.9872C261.216 65.8243 261.437 65.7333 261.667 65.7333H266.159C266.518 64.7271 267.472 64 268.6 64C270.033 64 271.2 65.1665 271.2 66.6C271.2 68.0334 270.033 69.1999 268.6 69.1999C267.472 69.1999 266.518 68.4728 266.159 67.4666H262.025L256.467 73.0253V76.2926C257.473 76.6514 258.2 77.6047 258.2 78.7331C258.2 80.1665 257.033 81.333 255.6 81.333C254.166 81.333 253 80.1665 253 78.7331C253 77.6047 253.727 76.6514 254.733 76.2926ZM268.6 67.4666C269.077 67.4666 269.467 67.0783 269.467 66.6C269.467 66.1216 269.077 65.7333 268.6 65.7333C268.122 65.7333 267.733 66.1216 267.733 66.6C267.733 67.0783 268.122 67.4666 268.6 67.4666ZM255.6 79.5997C256.077 79.5997 256.467 79.2115 256.467 78.7331C256.467 78.2547 256.077 77.8664 255.6 77.8664C255.122 77.8664 254.733 78.2547 254.733 78.7331C254.733 79.2115 255.122 79.5997 255.6 79.5997Z" fill="#00B2FF"/>
  <path d="M266.866 110.96V98.5066C265.86 98.1478 265.133 97.1945 265.133 96.0661C265.133 94.6327 266.3 93.4661 267.733 93.4661C268.862 93.4661 269.815 94.1933 270.174 95.1995H279.159C279.518 94.1933 280.472 93.4661 281.6 93.4661C282.728 93.4661 283.682 94.1933 284.04 95.1995H289.041L292.261 91.9798C292.098 91.641 292 91.2666 292 90.8662C292 89.4327 293.166 88.2662 294.6 88.2662C296.033 88.2662 297.2 89.4327 297.2 90.8662C297.2 92.2996 296.033 93.4661 294.6 93.4661C294.2 93.4661 293.825 93.3682 293.486 93.2053L290.013 96.6788C289.851 96.8418 289.63 96.9328 289.4 96.9328H284.04C283.682 97.9389 282.728 98.6661 281.6 98.6661C280.472 98.6661 279.518 97.9389 279.159 96.9328H270.173C269.911 97.6668 269.333 98.2449 268.599 98.5066V110.96C269.605 111.318 270.332 112.272 270.332 113.4C270.332 114.833 269.166 116 267.732 116C266.299 116 265.132 114.833 265.132 113.4C265.132 112.272 265.86 111.318 266.866 110.96ZM294.6 91.7328C295.077 91.7328 295.467 91.3446 295.467 90.8662C295.467 90.3878 295.077 89.9995 294.6 89.9995C294.122 89.9995 293.733 90.3878 293.733 90.8662C293.733 91.3446 294.122 91.7328 294.6 91.7328ZM281.6 96.9328C282.077 96.9328 282.467 96.5445 282.467 96.0661C282.467 95.5877 282.077 95.1995 281.6 95.1995C281.122 95.1995 280.733 95.5877 280.733 96.0661C280.733 96.5445 281.122 96.9328 281.6 96.9328ZM267.733 114.266C268.211 114.266 268.6 113.878 268.6 113.399C268.6 112.921 268.211 112.532 267.733 112.532C267.256 112.532 266.867 112.921 266.867 113.399C266.867 113.878 267.256 114.266 267.733 114.266ZM267.733 96.9328C268.211 96.9328 268.6 96.5445 268.6 96.0661C268.6 95.5877 268.211 95.1995 267.733 95.1995C267.256 95.1995 266.867 95.5877 266.867 96.0661C266.867 96.5445 267.256 96.9328 267.733 96.9328Z" fill="#00B2FF"/>
  <path d="M271.2 81.4925V78.7331C271.2 78.5026 271.291 78.2824 271.454 78.1204L281.861 67.7136C281.698 67.3747 281.6 67.0003 281.6 66.6C281.6 65.1665 282.767 64 284.2 64C285.328 64 286.282 64.7271 286.641 65.7333H290.267C290.745 65.7333 291.133 66.1207 291.133 66.6V68.8411L294.353 72.0607C294.692 71.8978 295.066 71.7999 295.467 71.7999C296.9 71.7999 298.067 72.9664 298.067 74.3998C298.067 75.8333 296.9 76.9998 295.467 76.9998C294.033 76.9998 292.867 75.8333 292.867 74.3998C292.867 73.9994 292.965 73.625 293.128 73.2862L289.654 69.8126C289.491 69.6506 289.4 69.4304 289.4 69.1999V67.4666H286.641C286.282 68.4728 285.328 69.1999 284.2 69.1999C283.8 69.1999 283.425 69.102 283.086 68.9391L272.933 79.0919V81.4925C273.94 81.8513 274.667 82.8046 274.667 83.933C274.667 85.3664 273.5 86.533 272.067 86.533C270.633 86.533 269.467 85.3664 269.467 83.933C269.467 82.8046 270.194 81.8513 271.2 81.4925ZM295.467 75.2665C295.944 75.2665 296.333 74.8782 296.333 74.3998C296.333 73.9214 295.944 73.5332 295.467 73.5332C294.989 73.5332 294.6 73.9214 294.6 74.3998C294.6 74.8782 294.989 75.2665 295.467 75.2665ZM284.2 67.4666C284.678 67.4666 285.067 67.0783 285.067 66.6C285.067 66.1216 284.678 65.7333 284.2 65.7333C283.722 65.7333 283.333 66.1216 283.333 66.6C283.333 67.0783 283.722 67.4666 284.2 67.4666ZM272.067 84.7997C272.544 84.7997 272.933 84.4114 272.933 83.933C272.933 83.4546 272.544 83.0663 272.067 83.0663C271.589 83.0663 271.2 83.4546 271.2 83.933C271.2 84.4114 271.589 84.7997 272.067 84.7997Z" fill="#00B2FF"/>
  <path d="M273.8 88.2663C274.928 88.2663 275.882 88.9934 276.241 89.9996H286.441L291.387 85.0536C291.549 84.8906 291.77 84.7997 292 84.7997H301.175L303.267 82.7076V75.6253L296.58 68.9391C296.241 69.102 295.867 69.1999 295.467 69.1999C294.033 69.1999 292.867 68.0334 292.867 66.6C292.867 65.1665 294.033 64 295.467 64C296.9 64 298.067 65.1665 298.067 66.6C298.067 67.0003 297.969 67.3747 297.806 67.7136L304.746 74.6538C304.909 74.8158 305 75.0359 305 75.2665V83.0663C305 83.2969 304.909 83.517 304.746 83.6791L302.146 86.279C301.984 86.442 301.763 86.533 301.533 86.533H292.359L287.413 91.4789C287.251 91.6419 287.03 91.7329 286.8 91.7329H276.241C275.882 92.7391 274.928 93.4662 273.8 93.4662C272.367 93.4662 271.2 92.2997 271.2 90.8662C271.2 89.4328 272.367 88.2663 273.8 88.2663ZM295.467 65.7333C294.989 65.7333 294.6 66.1216 294.6 66.6C294.6 67.0783 294.989 67.4666 295.467 67.4666C295.944 67.4666 296.333 67.0783 296.333 66.6C296.333 66.1216 295.944 65.7333 295.467 65.7333ZM273.8 91.7329C274.278 91.7329 274.667 91.3446 274.667 90.8662C274.667 90.3878 274.278 89.9996 273.8 89.9996C273.322 89.9996 272.933 90.3878 272.933 90.8662C272.933 91.3446 273.322 91.7329 273.8 91.7329Z" fill="#00B2FF"/>
  <path d="M255.6 84.7997C256 84.7997 256.375 84.8976 256.714 85.0606L259.933 81.841V76.8404C258.927 76.4816 258.2 75.5283 258.2 74.3999C258.2 72.9664 259.367 71.7999 260.8 71.7999C262.233 71.7999 263.4 72.9664 263.4 74.3999C263.4 75.5283 262.673 76.4816 261.667 76.8404V82.1998C261.667 82.4303 261.576 82.6504 261.413 82.8125L257.939 86.286C258.102 86.6249 258.2 86.9993 258.2 87.3997C258.2 88.528 257.473 89.4814 256.467 89.8402V90.5075L263.146 97.1868C263.309 97.3488 263.4 97.569 263.4 97.7995V98.8256C264.406 99.1844 265.133 100.138 265.133 101.266C265.133 102.394 264.406 103.348 263.4 103.707V105.76C264.406 106.118 265.133 107.072 265.133 108.2C265.133 109.634 263.967 110.8 262.533 110.8C261.1 110.8 259.933 109.634 259.933 108.2C259.933 107.072 260.66 106.118 261.667 105.76V103.707C260.66 103.348 259.933 102.394 259.933 101.266C259.933 100.138 260.66 99.1844 261.667 98.8256V98.1583L254.987 91.479C254.824 91.3169 254.733 91.0968 254.733 90.8663V89.8402C253.727 89.4814 253 88.528 253 87.3997C253 85.9662 254.167 84.7997 255.6 84.7997ZM260.8 75.2665C261.278 75.2665 261.667 74.8783 261.667 74.3999C261.667 73.9215 261.278 73.5332 260.8 73.5332C260.322 73.5332 259.933 73.9215 259.933 74.3999C259.933 74.8783 260.322 75.2665 260.8 75.2665ZM262.533 109.066C263.011 109.066 263.4 108.678 263.4 108.199C263.4 107.721 263.011 107.333 262.533 107.333C262.056 107.333 261.667 107.721 261.667 108.199C261.667 108.678 262.056 109.066 262.533 109.066ZM262.533 102.133C263.011 102.133 263.4 101.744 263.4 101.266C263.4 100.788 263.011 100.399 262.533 100.399C262.056 100.399 261.667 100.788 261.667 101.266C261.667 101.744 262.056 102.133 262.533 102.133ZM255.6 88.2663C256.078 88.2663 256.467 87.8781 256.467 87.3997C256.467 86.9213 256.078 86.533 255.6 86.533C255.122 86.533 254.733 86.9213 254.733 87.3997C254.733 87.8781 255.122 88.2663 255.6 88.2663Z" fill="#00B2FF"/>
</svg>
